<svg width="33" height="33" viewBox="0 0 33 33" fill="none" xmlns="http://www.w3.org/2000/svg">
<path fill-rule="evenodd" clip-rule="evenodd" d="M8.49861 2.18018C4.56273 2.18018 1.37207 5.37084 1.37207 9.30672V24.5598C1.37207 28.4957 4.56273 31.6863 8.49861 31.6863H23.7517C27.6876 31.6863 30.8782 28.4957 30.8782 24.5598V9.30672C30.8782 5.37084 27.6876 2.18018 23.7517 2.18018H8.49861ZM0.37207 9.30672C0.37207 4.81855 4.01045 1.18018 8.49861 1.18018H23.7517C28.2399 1.18018 31.8782 4.81855 31.8782 9.30672V24.5598C31.8782 29.048 28.2399 32.6863 23.7517 32.6863H8.49861C4.01045 32.6863 0.37207 29.048 0.37207 24.5598V9.30672ZM17.0128 11.3263C15.8474 11.1535 14.6571 11.3526 13.6114 11.8952C12.5656 12.4378 11.7176 13.2964 11.1879 14.3487C10.6582 15.4011 10.4739 16.5937 10.661 17.7569C10.8482 18.92 11.3974 19.9946 12.2305 20.8277C13.0635 21.6607 14.1381 22.2099 15.3013 22.3971C16.4645 22.5843 17.657 22.3999 18.7094 21.8702C19.7618 21.3405 20.6203 20.4925 21.1629 19.4467C21.7056 18.401 21.9046 17.2108 21.7318 16.0454C21.5555 14.8566 21.0016 13.7561 20.1518 12.9063C19.3021 12.0565 18.2015 11.5026 17.0128 11.3263ZM13.1508 11.0076C14.3833 10.3681 15.786 10.1335 17.1594 10.3372C18.5604 10.5449 19.8574 11.1977 20.8589 12.1992C21.8604 13.2007 22.5132 14.4977 22.721 15.8987C22.9246 17.2722 22.69 18.6749 22.0506 19.9073C21.4111 21.1398 20.3992 22.1392 19.159 22.7634C17.9188 23.3877 16.5133 23.605 15.1424 23.3844C13.7716 23.1638 12.5052 22.5166 11.5234 21.5348C10.5416 20.553 9.89434 19.2866 9.67375 17.9157C9.45316 16.5449 9.67045 15.1394 10.2947 13.8991C10.9189 12.6589 11.9184 11.6471 13.1508 11.0076ZM24.5144 8.04406C24.2382 8.04406 24.0144 8.26792 24.0144 8.54406C24.0144 8.82021 24.2382 9.04406 24.5144 9.04406H24.5289C24.8051 9.04406 25.0289 8.82021 25.0289 8.54406C25.0289 8.26792 24.8051 8.04406 24.5289 8.04406H24.5144Z" fill="white"/>
</svg>
