<svg width="85" height="85" viewBox="0 0 85 85" fill="none" xmlns="http://www.w3.org/2000/svg">
<path d="M7.5 71.0001C6 59.1668 7 33.6001 23 26.0001C24.3523 24.8732 28.4476 24.4574 33.5 24.2949M33.5 24.2949C39.6561 24.0968 47.233 24.2747 53 24.0001C60 24.0001 56.5 17.5001 52.5 18.5001C48.1 18.5001 32 18.5001 24.5 18.5001C22.5 18.3334 18.8 18.8001 20 22.0001C21.5 26.0001 30.5 24.0897 33.5 24.2949Z" stroke="#7B7777" stroke-width="2.2"/>
<path d="M67.9998 48.0001C67.6664 42.8334 63.9998 32.0001 51.4998 25.0001C49.8998 23.8001 49.8331 23.8334 49.9998 24.0001" stroke="#7B7777" stroke-width="2.2"/>
<path d="M35.4998 83.5H6.49976C-0.500224 83.5 -0.000200272 73.5 6.49976 73.5C10.9998 73.6667 17.4998 73.5 12.4998 73.5" stroke="#7B7777" stroke-width="2.2"/>
<path d="M34 83.4999H61M61 83.4999H79.5C84 83.4999 86 77.9999 79.5 77.9999H61C58 77.4999 56.5 82.9999 61 83.4999Z" stroke="#7B7777" stroke-width="2.2"/>
<path d="M64.9998 78.0001H59.9998C54.9997 79.5 51.9999 71.5001 59.9998 72.5001L73.9998 72.5001H76.9998C80.4998 72.0001 83.4998 77.0001 76.9998 78.0001" stroke="#7B7777" stroke-width="2.2"/>
<path d="M61.9994 72.5001C57.4994 73.0001 55.9994 66.5001 61.9994 66.5001H77.9994C85.4994 66.0001 85.4994 72.5001 77.9994 72.5001" stroke="#7B7777" stroke-width="2.2"/>
<path d="M61.4995 66.5001C52.9994 68.0001 53.4994 60.5001 59.9995 61.0001L74.9994 61.0001C83.4994 60.5001 81.9994 67.0001 74.9994 66.5001" stroke="#7B7777" stroke-width="2.2"/>
<path d="M61.4995 55.0001C52.9995 56.5001 53.4994 49.0001 59.9995 49.5001L74.8805 49.5001C83.3805 49.0001 81.8805 55.5001 74.8805 55.0001" stroke="#7B7777" stroke-width="2.2"/>
<path d="M61.9574 61.0275C57.4574 61.5275 55.9574 55.0275 61.9574 55.0275H77.9574C85.4574 54.5276 85 61.0274 77.5 61.0274" stroke="#7B7777" stroke-width="2.2"/>
<path d="M67 43C67.5 44.6667 68.4 48.3 68 49.5" stroke="#7B7777" stroke-width="2.2"/>
<path d="M24.9997 17.9999L21.4997 10.4999C20.833 8.16661 21.3997 3.69995 28.9997 4.49995" stroke="#7B7777" stroke-width="2.2"/>
<path d="M31.1895 4C31.3562 8 30.6896 14 31.1895 10" stroke="#7B7777" stroke-width="2.2"/>
<path d="M28 4.5H31C31 3.5 31.9 1.5 35.5 1.5C39.1 1.5 41.6667 1.5 42.5 1.5C43.5 1.66667 45.5 2.8 45.5 6C45.3333 8.83333 45.5 13.5 45.5 10.5" stroke="#7B7777" stroke-width="2.2"/>
<path d="M51.5 18.0001C55.1667 12.1668 59.1 1.40011 45.5 5.00011" stroke="#7B7777" stroke-width="2.2"/>
<path d="M37.9992 52.5001C28.4994 51.0001 29.4994 38.5001 37.9992 38.5001C38.8326 38.3334 40.8994 38.3001 42.4994 39.5001C43.1661 40.0001 44.5994 41.4001 44.9994 43.0001C45.4994 45.0001 43.9994 46.5001 44.9994 44.5001" stroke="#7B7777" stroke-width="2.2"/>
<path d="M38.4998 52.5C47.9997 54 46.9996 66.5 38.4998 66.5C36.4999 66.5 35.4999 66.5 34.6049 66C33.9382 65.5 32.5049 64.1 32.1049 62.5C31.6049 60.5 31.9999 58 31.9999 61" stroke="#7B7777" stroke-width="2.2"/>
<path d="M38.4999 56.9998C38.3332 45.4998 38.4999 25.9999 38.4999 41.9998" stroke="#7B7777" stroke-width="2.2"/>
<path d="M38.4999 55C38.3332 62.6667 38.4999 74 38.4999 64.5" stroke="#7B7777" stroke-width="2.2"/>
<path d="M8 73.5C8 73 7 70 7 65" stroke="#7B7777" stroke-width="2.2"/>
</svg>
