<svg width="81" height="84" viewBox="0 0 81 84" fill="none" xmlns="http://www.w3.org/2000/svg">
<path d="M68.2892 63.3432C68.4189 62.8951 68.8856 62.6352 69.3349 62.761L77.9829 65.1824C78.4377 65.3098 78.7015 65.7836 78.5702 66.2373L74.1824 81.3949C74.0527 81.8431 73.586 82.1029 73.1367 81.9771L64.4887 79.5557C64.0339 79.4283 63.7701 78.9545 63.9014 78.5008L68.2892 63.3432Z" stroke="#7B7777" stroke-width="2.3"/>
<path d="M1.19119 22.3302C1.18203 21.8638 1.55053 21.4771 2.01688 21.4639L10.9939 21.2087C11.466 21.1952 11.8586 21.5694 11.8678 22.0416L12.1779 37.8185C12.1871 38.285 11.8186 38.6716 11.3522 38.6849L2.37525 38.94C1.90308 38.9535 1.51054 38.5793 1.50126 38.1071L1.19119 22.3302Z" stroke="#7B7777" stroke-width="2.3"/>
<path d="M67.0661 64.3987C63.7328 62.3987 55.2661 58.7987 48.0661 60.3987C40.8661 61.9987 34.7328 63.7321 32.5661 64.3987C30.2328 67.0654 29.8661 71.4987 47.0661 67.8987C47.4661 67.8987 47.8995 67.5654 48.0661 67.3987" stroke="#7B7777" stroke-width="2.2"/>
<path d="M21.0654 63.8989C20.5654 62.2322 21.8654 60.0989 31.0654 64.8989" stroke="#7B7777" stroke-width="2.2"/>
<path d="M64.566 75.3989C62.7326 74.7322 59.066 73.8989 57.066 75.8989C48.266 78.6989 43.3993 79.7322 42.066 79.8989C40.2326 80.8989 33.066 79.6989 19.066 66.8989C18.566 63.8989 20.566 62.3989 37.066 71.8989C37.2326 72.2322 38.066 72.3989 40.066 70.3989C41.066 69.8989 41.566 69.8989 41.566 69.3989" stroke="#7B7777" stroke-width="2.2"/>
<path d="M12 23C12.3333 22.8333 13.8 22.4 17 22C18.5 20.5 25 10 27.5 10C30 10 33.5 10 40 12.5C42.5 15 38.5 17 38 17C37.5 17 34 18 32.5 17" stroke="#7B7777" stroke-width="2.2"/>
<path d="M12.5 36.0001C14 36.0001 17.2 35.9001 18 35.5001C18.8 35.1001 20 34.6668 20.5 34.5001C20.5 34.1668 20.8 33.6001 22 34.0001" stroke="#7B7777" stroke-width="2.2"/>
<path d="M31 10.0001C29.8333 8.16677 27.5 4.4001 27.5 4.0001C27.5 3.5001 26 2.5001 31 3.5001C35 1.00008 33.5 2.50008 34.5 2.50008C35.5 2.50008 37 5.00011 37.5 4.0001C38 3.00009 40.5 2.50009 41.5 2.00009C42.5 1.50009 43 4.00009 44.5 3.50009C46 3.00009 47.5 2.50006 47.5 3.50006C47.5 4.50006 44.5 10.5001 44 10.5001C43.5 10.5001 42 13.0001 41.5 12.5001" stroke="#7B7777" stroke-width="2.2"/>
<path d="M33.4996 17.5001C32.6663 17.0001 30.7996 16.6001 29.9996 19.0001C28.9996 22.0001 30.9996 21.0001 21.4996 36.0001C19.9996 41.5001 19.4996 45.0001 23.9996 52.0001C28.4996 59.0001 39.9996 58.5001 42.4996 57.5001C45.9996 56.0001 51.4996 54.0001 53.4996 44.5001C53.9996 42.6668 54.3996 37.8001 51.9996 33.0001C51.9996 32.6001 51.9996 32.5001 51.9996 32.5001" stroke="#7B7777" stroke-width="2.2"/>
<path d="M40.9998 13.5003C42.3332 12.3336 45.5998 10.8003 47.9998 14.0003C49.8588 14.3721 47.0179 16.4027 43.9998 17.8307M43.9998 17.8307C42.9591 18.3231 41.8973 18.7439 40.9998 19.0003C39.4998 21.0003 40.4998 24.0003 41.9998 24.5003C44.9998 23.5003 49.4998 21.0003 50.9998 20.5003C52.4998 20.0003 50.9998 14.8548 48.9998 15.5003C47.3998 16.0167 44.9998 17.269 43.9998 17.8307Z" stroke="#7B7777" stroke-width="2.2"/>
<path d="M39.5 16.5C39.3334 17.1667 39.5 18.6 41.5 19" stroke="#7B7777" stroke-width="2.2"/>
<path d="M50 21C51.6667 21.1667 54.4 22.4 52 26C47.2 28.4 45.3333 29.3333 45 29.5C44 29.5 42 28.5 42 24.5" stroke="#7B7777" stroke-width="2.2"/>
<path d="M37.0005 40C38.8338 40.1667 42.4005 41.2 42.0005 44C41.5005 47.5 41.5005 47 37.5005 48C33.5005 49 30.5005 44 31.5005 45.5" stroke="#7B7777" stroke-width="2.2"/>
<path d="M37.5002 38C37.3335 44.1667 37.1002 54.9 37.5002 48.5" stroke="#7B7777" stroke-width="2.2"/>
<path d="M31.5 45.5C32.5 47.0001 35.5 48.0001 38 47.5001" stroke="#7B7777" stroke-width="2.2"/>
<path d="M37.0001 40C33.8334 38.6667 29.4001 35.2 37.0001 32C40.5001 32 45.0001 35 41.0001 33" stroke="#7B7777" stroke-width="2.2"/>
<path d="M37.5002 42.5001C37.3335 36.5001 37.1002 25.8001 37.5002 31.0001" stroke="#7B7777" stroke-width="2.2"/>
<path d="M51.5 26.5C52.6667 27 54.3 28.8 51.5 32C48.7 33.2 47.6667 33.1667 47.5 33C46.6667 33 44.9 32.3 44.5 29.5" stroke="#7B7777" stroke-width="2.2"/>
</svg>
