<svg width="71" height="86" viewBox="0 0 71 86" fill="none" xmlns="http://www.w3.org/2000/svg">
<path d="M2 8V78C2.8 82.4 6.33333 83.8333 8 84H62C67.6 84 69 78.6667 69 76V11C69 3.5 65.5 1.5 62.5 1.5C61.5 1 13 1 8 1.5C4 1.9 2.33333 6 2 8Z" stroke="#7B7777" stroke-width="2.2"/>
<path d="M21 1V13C21 15 22 16 28 15.5" stroke="#7B7777" stroke-width="2.2"/>
<path d="M49.5 1V13.5C49.6667 14.1667 49.3 15.5 46.5 15.5C43.7 15.5 32.6667 15.5 27.5 15.5" stroke="#7B7777" stroke-width="2.2"/>
<path d="M8.9999 72.9999V66.4999L9 12.9999C9 9.49994 9.50001 8.99993 10.5 8.99993H57.5C63 8.49994 61.5 9.99994 61.5 11.4999V21.4999V59.4999H46.5C41.7 59.4999 43 59.4999 43 62.4999V75.9999H36H12.9999C8.49997 75.9999 8.99995 75.9999 8.9999 72.9999Z" stroke="#7B7777" stroke-width="2.2"/>
<path d="M22.4996 26.9998C21.6245 23.4999 28.4996 20.4999 29.4996 26.9998C29.4996 29.4999 23.9736 32.8951 22.4996 26.9998Z" stroke="#7B7777" stroke-width="2.2"/>
<path d="M44.0003 50.0003C42.3336 51.8336 39.3003 55.1003 40.5003 53.5003C41.7003 51.9003 43.3336 50.5003 44.0003 50.0003ZM44.0003 50.0003C46.0003 52.1669 49.4003 55.8003 47.0003 53.0003C44.6003 50.2003 44.0003 49.8336 44.0003 50.0003ZM44.0003 50.0003C41.9593 48.0003 38.5018 44.6003 41.0003 47.0003M44.5003 49.5003C46.167 47.6669 49.0003 44.6003 47.0003 47.0003" stroke="#7B7777" stroke-width="2.2"/>
<path d="M43.5 76.5L62 60" stroke="#7B7777" stroke-width="2.2"/>
<path d="M43 39.0001C43.1667 30.6667 43.4 16.1001 43 24.5001" stroke="#7B7777" stroke-width="2.2"/>
<path d="M41.4996 25C39.333 28.8333 35.6996 35.2 38.4996 30" stroke="#7B7777" stroke-width="2.2"/>
<path d="M44.5004 24.5C46.667 28.3333 50.3004 34.7 47.5004 29.5" stroke="#7B7777" stroke-width="2.2"/>
<path d="M41 26C41.3333 25.1667 42.7 22.4 43.5 22" stroke="#7B7777" stroke-width="2.2"/>
<path d="M45 25.5C44.6667 24.6667 44 23 43 22" stroke="#7B7777" stroke-width="2.2"/>
<path d="M21 62C26.6667 62 51 62.5 28 62" stroke="#7B7777" stroke-width="2.2"/>
<path d="M30.71 62C25.0433 62 0.709961 62.5 23.71 62" stroke="#7B7777" stroke-width="2.2"/>
<path d="M21 62C26.6667 62 51 62.5 28 62" stroke="#7B7777" stroke-width="2.2"/>
<path d="M21 66.5C26.6667 66.5 51 67 28 66.5" stroke="#7B7777" stroke-width="2.2"/>
<path d="M21 71C26.6667 71 51 71.5 28 71" stroke="#7B7777" stroke-width="2.2"/>
<path d="M31 66.5C25.3333 66.5 1 67 24 66.5" stroke="#7B7777" stroke-width="2.2"/>
<path d="M31 71C25.3333 71 1 71.5 24 71" stroke="#7B7777" stroke-width="2.2"/>
<path d="M33.0003 40.5H28.0003C27.0003 40.5001 26.5003 40.4 26.5003 44C26.4949 50.3334 26.4874 60.0001 26.5002 52.0001" stroke="#7B7777" stroke-width="2.2"/>
<path d="M32 40.5H41.5C42.1667 40.5 43.4 40 43 38" stroke="#7B7777" stroke-width="2.2"/>
</svg>
