<svg width="85" height="86" viewBox="0 0 85 86" fill="none" xmlns="http://www.w3.org/2000/svg">
<circle cx="42.5" cy="43.5" r="24.4" stroke="#7B7777" stroke-width="2.2"/>
<path d="M42.4994 43.5C31.9994 44.5 27.4994 29 41.9994 28C43.1661 27.8333 45.9195 28.21 48.4994 29.5C53.4994 32 52.4994 39 52.4994 34.5" stroke="#7B7777" stroke-width="2.2"/>
<path d="M42.4996 43.5C52.9996 42.5 57.4996 58 42.9996 59C41.833 59.1667 39.0796 58.79 36.4997 57.5C31.4997 55 32.4997 48.0001 32.4997 52.5001" stroke="#7B7777" stroke-width="2.2"/>
<path d="M8.49992 53.9999C14.9999 70.9999 28.8333 77.3333 34.9999 78.4999H41.9999C53.4999 78.9999 52.4999 73.9999 54.4999 81.4999C55.2999 82.6999 52.4999 83.6666 50.9999 83.9999L44.9999 84.4999C38.6666 84.9999 23.4999 83.3999 13.4999 72.9999C3.4999 62.5999 1.33324 49.3333 1.4999 43.9999C1.4999 34.9999 3.9999 28.4999 6.4999 23.4999C8.9999 18.4999 11.9999 16.9999 10.9999 15.9999C7.9999 11.9999 4.4999 12.4999 15.9999 8.99997C25.1999 5.39997 25.4999 7.8333 24.4999 9.49997L23.4999 13.5C22.8749 15.9999 20.9999 25.4999 18.4999 23.4999C15.9999 19.4999 14.4999 21.4999 13.9999 21.9999C13.6463 22.3535 11.9999 24.4999 9.49992 30.9999C6.9999 37.4999 5.9999 43.4999 8.49992 53.9999Z" stroke="#7B7777" stroke-width="2.2"/>
<path d="M76.1407 32.5804C69.6407 15.5804 55.8074 9.24705 49.6407 8.08038H42.6407C31.1407 7.58038 32.1407 12.5804 30.1407 5.08038C29.3407 3.88039 32.1407 2.91372 33.6407 2.58038L39.6407 2.08038C45.9741 1.58038 61.1407 3.18038 71.1407 13.5804C81.1407 23.9804 83.3074 37.2471 83.1407 42.5804C83.1407 51.5804 80.6407 58.0804 78.1407 63.0804C75.6407 68.0804 72.6407 69.5804 73.6407 70.5804C76.6407 74.5804 80.1407 74.0804 68.6407 77.5804C59.4407 81.1804 59.1407 78.747 60.1407 77.0804L61.1407 73.0804C61.7657 70.5804 63.6407 61.0804 66.1407 63.0804C68.6407 67.0804 70.1407 65.0804 70.6407 64.5804C70.9943 64.2268 72.6407 62.0804 75.1407 55.5804C77.6407 49.0804 78.6407 43.0804 76.1407 32.5804Z" stroke="#7B7777" stroke-width="2.2"/>
<path d="M42.5 39.0001C42.6667 31.6667 42.5 19.0001 42.5 28.0001" stroke="#7B7777" stroke-width="2.2"/>
<path d="M42.5 37.5C42.6667 49.6667 42.9 70.8 42.5 58" stroke="#7B7777" stroke-width="2.2"/>
</svg>
