<svg width="415" height="403" viewBox="0 0 415 403" fill="none" xmlns="http://www.w3.org/2000/svg">
<path d="M-1.23655e-05 201.5C-9.98176e-06 175.039 5.36715 148.836 15.795 124.389C26.2228 99.9422 41.5072 77.729 60.7754 59.018C80.0435 40.307 102.918 25.4646 128.093 15.3383C153.268 5.21195 180.251 1.06015e-05 207.5 1.29134e-05C234.749 1.52252e-05 261.732 5.21196 286.907 15.3383C312.082 25.4646 334.957 40.307 354.225 59.018C373.493 77.729 388.777 99.9422 399.205 124.389C409.633 148.836 415 175.039 415 201.5L332.263 201.5C332.263 185.59 329.036 169.835 322.766 155.136C316.496 140.437 307.306 127.081 295.721 115.83C284.135 104.58 270.382 95.6558 255.245 89.5672C240.108 83.4786 223.884 80.3448 207.5 80.3448C191.116 80.3448 174.892 83.4786 159.755 89.5672C144.618 95.6558 130.865 104.58 119.279 115.83C107.694 127.081 98.5041 140.437 92.2342 155.136C85.9643 169.835 82.7372 185.59 82.7372 201.5L-1.23655e-05 201.5Z" fill="#FFAD58"/>
<path d="M-1.23655e-05 201.5C-9.98176e-06 227.961 5.36715 254.164 15.795 278.611C26.2228 303.058 41.5072 325.271 60.7754 343.982C80.0435 362.693 102.918 377.535 128.093 387.662C153.268 397.788 180.251 403 207.5 403C234.749 403 261.732 397.788 286.907 387.662C312.082 377.535 334.957 362.693 354.225 343.982C373.493 325.271 388.777 303.058 399.205 278.611C409.633 254.164 415 227.961 415 201.5L332.263 201.5C332.263 217.41 329.036 233.165 322.766 247.864C316.496 262.563 307.306 275.919 295.721 287.17C284.135 298.42 270.382 307.344 255.245 313.433C240.108 319.521 223.884 322.655 207.5 322.655C191.116 322.655 174.892 319.521 159.755 313.433C144.618 307.344 130.865 298.42 119.279 287.17C107.694 275.919 98.5041 262.563 92.2342 247.864C85.9643 233.165 82.7372 217.41 82.7372 201.5L-1.23655e-05 201.5Z" fill="#FFAD58"/>
<path d="M-1.23655e-05 201.5C-8.77539e-06 161.647 12.1697 122.689 34.9701 89.5526C57.7704 56.4161 90.1775 30.5893 128.093 15.3383C166.009 0.0872286 207.73 -3.90315 247.981 3.87178C288.232 11.6467 325.205 30.8377 354.225 59.018L295.721 115.83C278.272 98.8865 256.042 87.3476 231.84 82.6727C207.638 77.9979 182.553 80.3972 159.755 89.5672C136.958 98.7371 117.473 114.266 103.764 134.19C90.0544 154.114 82.7372 177.538 82.7372 201.5L-1.23655e-05 201.5Z" fill="#51B2D2"/>
<path d="M-1.23655e-05 201.5C-8.77539e-06 241.353 12.1697 280.311 34.9701 313.447C57.7704 346.584 90.1775 372.411 128.093 387.662C166.009 402.913 207.73 406.903 247.981 399.128C288.232 391.353 325.205 372.162 354.225 343.982L295.721 287.17C278.272 304.114 256.042 315.652 231.84 320.327C207.638 325.002 182.553 322.603 159.755 313.433C136.958 304.263 117.473 288.734 103.764 268.81C90.0544 248.886 82.7372 225.462 82.7372 201.5L-1.23655e-05 201.5Z" fill="#51B2D2"/>
<path d="M296.265 116.141L353.695 58.3493" stroke="white" stroke-width="3"/>
<path d="M295.895 287.277L354.583 343.912" stroke="white" stroke-width="3"/>
</svg>
